<svg width="70" height="70" viewBox="0 0 70 70" fill="none" xmlns="http://www.w3.org/2000/svg">
<rect width="70" height="70" rx="20" fill="url(#paint0_radial_2_172)"/>
<path d="M35 15C23.9718 15 15 23.9718 15 35C15 46.0282 23.9718 55 35 55C46.0282 55 55 46.0282 55 35C55 23.9718 46.0282 15 35 15ZM35 50.6284C26.3823 50.6284 19.3716 43.6177 19.3716 35C19.3716 26.3827 26.3823 19.3716 35 19.3716C43.6177 19.3716 50.6284 26.3827 50.6284 35C50.6284 43.6177 43.6177 50.6284 35 50.6284Z" fill="white"/>
<path d="M36.7311 35.024V26.6416C36.7311 25.7056 35.9727 24.9472 35.0371 24.9472C34.1012 24.9472 33.3427 25.7056 33.3427 26.6416V35.5653C33.3427 35.592 33.3492 35.617 33.3505 35.6436C33.3282 36.1044 33.4869 36.5722 33.8388 36.9241L40.1492 43.234C40.8111 43.8959 41.8839 43.8959 42.5453 43.234C43.2067 42.5722 43.2071 41.4994 42.5453 40.838L36.7311 35.024Z" fill="white"/>
<defs>
<radialGradient id="paint0_radial_2_172" cx="0" cy="0" r="1" gradientUnits="userSpaceOnUse" gradientTransform="translate(70 70) rotate(-180) scale(70)">
<stop stop-color="#FF8900"/>
<stop offset="1" stop-color="#FFAD4F"/>
</radialGradient>
</defs>
</svg>
