<svg width="70" height="70" viewBox="0 0 70 70" fill="none" xmlns="http://www.w3.org/2000/svg">
<rect width="70" height="70" rx="20" fill="url(#paint0_radial_2_194)"/>
<g clip-path="url(#clip0_2_194)">
<path d="M31.4684 28.7684C32.1017 28.9917 32.7543 28.6607 32.971 28.068C33.19 27.4628 32.884 26.7897 32.2706 26.5654C31.6443 26.3422 30.9864 26.6684 30.768 27.2658C30.549 27.8711 30.855 28.544 31.4684 28.7684Z" fill="white"/>
<path d="M35.6295 32.2108C39.651 32.102 43.6014 30.6647 46.7543 28.163C47.1574 27.8437 47.6335 27.6581 48.1275 27.5388L48.5899 26.269C48.7627 25.7952 48.6128 25.2642 48.2168 24.9506C44.2766 21.8241 39.3362 20.0263 34.3065 19.8877C29.9075 19.7676 25.7257 18.2269 22.2125 15.5822L21.7868 15.2526C21.4926 15.0202 21.1047 14.9424 20.7407 15.0443C20.3779 15.1473 20.0873 15.4174 19.9591 15.771L15.071 29.0636C14.8982 29.5374 15.0481 30.0684 15.4429 30.382C18.2078 32.5754 21.5451 34.0974 24.9778 34.8692C28.2877 33.2464 31.9325 32.3124 35.6295 32.2108ZM37.3753 29.6706C37.5967 29.0623 38.2692 28.7488 38.8773 28.97C39.4856 29.1914 39.7991 29.8639 39.5777 30.472C39.3564 31.0803 38.6839 31.3938 38.0757 31.1724C37.4675 30.9512 37.1539 30.2787 37.3753 29.6706ZM28.5662 26.4647C29.2288 24.6439 31.2533 23.7009 33.0718 24.3635C34.8936 25.0261 35.8367 27.0483 35.1729 28.8691C34.511 30.6897 32.4875 31.6349 30.6674 30.9702C28.8439 30.3056 27.8994 28.2941 28.5662 26.4647ZM24.1609 24.8609C24.3822 24.2527 25.0546 23.9391 25.6629 24.1606C26.2711 24.3819 26.5846 25.0543 26.3633 25.6624C26.1419 26.2707 25.4694 26.5842 24.8613 26.3628C24.2531 26.1415 23.9395 25.4691 24.1609 24.8609Z" fill="white"/>
<path d="M26.2201 54.2283C26.3483 54.5831 26.6401 54.8532 27.0017 54.9551C27.3742 55.0604 27.7614 54.9747 28.05 54.7456C31.5966 51.9315 36.0426 50.2352 40.5676 50.1116C45.5973 49.9732 50.6158 48.1753 54.5571 45.0487C54.952 44.7351 55.1019 44.2041 54.9291 43.7304L50.041 30.5159C49.9128 30.1612 49.621 29.8911 49.2594 29.7892C48.8955 29.6862 48.5075 29.764 48.2111 29.9987C44.6646 32.8128 40.2185 34.4309 35.6935 34.5534C30.665 34.6919 25.7246 36.4897 21.7832 39.6174C21.3873 39.931 21.2374 40.462 21.4102 40.9358L26.2201 54.2283ZM44.3371 38.8267C44.9454 38.6054 45.6178 38.919 45.8392 39.5271C46.0606 40.1354 45.7471 40.8078 45.1388 41.0291C44.5307 41.2505 43.8582 40.9369 43.6367 40.3287C43.4154 39.7205 43.729 39.0481 44.3371 38.8267ZM36.9284 39.0291C38.7503 38.3665 40.7724 39.3095 41.4339 41.1303C42.0977 42.9511 41.1547 44.9732 39.3328 45.6358C37.5174 46.2973 35.4966 45.3712 34.8272 43.5347C34.1635 41.7139 35.1064 39.6917 36.9284 39.0291ZM31.1228 43.6364C31.7309 43.4151 32.4034 43.7287 32.6248 44.3368C32.8461 44.9451 32.5325 45.6175 31.9244 45.8388C31.3161 46.0601 30.6437 45.7465 30.4224 45.1384C30.201 44.5301 30.5146 43.8576 31.1228 43.6364Z" fill="white"/>
<path d="M38.5316 43.434C39.1457 43.2093 39.4507 42.5359 39.232 41.9314C39.0135 41.3343 38.356 41.0076 37.7294 41.231C37.1152 41.4556 36.8102 42.129 37.029 42.7336C37.2493 43.3358 37.9158 43.6582 38.5316 43.434Z" fill="white"/>
</g>
<defs>
<radialGradient id="paint0_radial_2_194" cx="0" cy="0" r="1" gradientUnits="userSpaceOnUse" gradientTransform="translate(70 70) rotate(-180) scale(70)">
<stop stop-color="#3894EF"/>
<stop offset="1" stop-color="#8AC5FF"/>
</radialGradient>
<clipPath id="clip0_2_194">
<rect width="40" height="40" fill="white" transform="translate(15 15)"/>
</clipPath>
</defs>
</svg>
