<svg width="70" height="70" viewBox="0 0 70 70" fill="none" xmlns="http://www.w3.org/2000/svg">
<g clip-path="url(#clip0_2_8)">
<path d="M22.0792 30.5941L20.3961 31.9802C20.099 31.5842 19.703 31.1881 19.1089 30.9901C18.6139 30.7921 18.0198 30.6931 17.5248 30.6931C16.2377 30.6931 15.2476 31.0891 14.4555 31.9802C13.6634 32.8713 13.2674 33.9604 13.2674 35.2475C13.2674 36.6337 13.6634 37.7228 14.4555 38.6139C15.2476 39.505 16.2377 39.901 17.5248 39.901C18.8119 39.901 19.901 39.406 20.5941 38.4159L22.3763 39.703C21.1882 41.1881 19.604 41.8812 17.5248 41.8812C15.5446 41.8812 13.9604 41.2872 12.6733 40C11.3862 38.8119 10.7921 37.2277 10.7921 35.2475C10.7921 33.2673 11.3862 31.6832 12.6733 30.4951C13.9604 29.3069 15.5446 28.7129 17.5248 28.7129C18.4159 28.7129 19.208 28.9109 20.099 29.2079C20.9901 29.505 21.6832 30 22.0792 30.5941Z" fill="#003366"/>
<path d="M23.5643 41.4851V32.9702H25.6435V34.3564C25.8416 33.8613 26.2376 33.4653 26.6336 33.1683C27.0297 32.8712 27.5247 32.6732 28.1188 32.6732C28.3168 32.6732 28.5148 32.6732 28.6138 32.7722V34.7524C28.4158 34.6534 28.1188 34.6534 27.9208 34.6534C27.5247 34.6534 27.2277 34.7524 26.9307 34.8514C26.6336 34.9504 26.4356 35.1485 26.2376 35.2475C26.0396 35.4455 25.9406 35.6435 25.8416 35.8415C25.7426 36.0396 25.6435 36.2376 25.6435 36.4356C25.6435 36.6336 25.5445 36.7326 25.5445 36.9306V41.4851H23.5643Z" fill="#003366"/>
<path d="M37.9209 37.4257C37.9209 37.6237 37.9209 37.8217 37.9209 38.0197H31.4852C31.4852 38.6138 31.7822 39.1089 32.2773 39.5049C32.7723 39.9009 33.2674 40.099 33.9605 40.099C34.9506 40.099 35.6436 39.7029 36.2377 39.0098L37.6238 40.099C36.8317 41.1881 35.5446 41.7821 33.9605 41.7821C32.6733 41.7821 31.5842 41.3861 30.6931 40.594C29.802 39.8019 29.406 38.7128 29.406 37.3267C29.406 35.9405 29.802 34.8514 30.6931 34.0593C31.5842 33.2673 32.5743 32.7722 33.8615 32.7722C35.0496 32.7722 36.0397 33.1683 36.8317 33.9603C37.5248 34.7524 37.9209 35.9405 37.9209 37.4257ZM31.3862 36.4356H35.7426C35.7426 35.8415 35.5446 35.3465 35.2476 34.9504C34.9506 34.5544 34.4555 34.3564 33.7624 34.3564C33.1684 34.3564 32.5743 34.5544 32.1783 34.9504C31.6832 35.3465 31.4852 35.8415 31.3862 36.4356Z" fill="#003366"/>
<path d="M48.0198 28.2178V41.5841H46.0396V40.297C45.7426 40.792 45.3465 41.1881 44.8515 41.3861C44.3564 41.5841 43.7624 41.7821 43.1683 41.7821C41.8812 41.7821 40.8911 41.3861 40.099 40.495C39.3069 39.6039 38.9109 38.5148 38.9109 37.3267C38.9109 36.0396 39.3069 34.9504 40.099 34.1584C40.8911 33.2673 41.8812 32.8712 43.0693 32.8712C44.2574 32.8712 45.2475 33.2673 45.9406 34.1584H46.0396V28.2178H48.0198ZM41.6832 35.3465C41.2871 35.8415 40.9901 36.5346 40.9901 37.2277C40.9901 37.9207 41.1881 38.6138 41.6832 39.1089C42.0792 39.7029 42.6733 39.9009 43.4653 39.9009C44.1584 39.9009 44.8515 39.6039 45.2475 39.1089C45.7426 38.5148 45.9406 37.9207 45.9406 37.2277C45.9406 36.5346 45.7426 35.8415 45.2475 35.3465C44.7525 34.7524 44.1584 34.4554 43.4653 34.4554C42.7723 34.5544 42.1782 34.7524 41.6832 35.3465Z" fill="#003366"/>
<path d="M50.099 31.0891C49.802 30.7921 49.703 30.495 49.703 30.198C49.703 29.901 49.802 29.604 50.099 29.3069C50.3961 29.0099 50.6931 28.9109 51.0891 28.9109C51.4852 28.9109 51.7822 29.0099 52.0792 29.3069C52.3763 29.5049 52.4753 29.901 52.4753 30.198C52.4753 30.5941 52.3763 30.8911 52.0792 31.0891C51.7822 31.2871 51.4852 31.4851 51.0891 31.4851C50.6931 31.4851 50.3961 31.2871 50.099 31.0891ZM50.099 41.4851V32.9703H52.1783V41.4851H50.099Z" fill="#003366"/>
<path d="M55.0495 34.7525H53.5643V33.0694H55.0495V30.5941H57.1287V33.0694H59.2079V34.7525H57.1287V38.7129C57.1287 39.109 57.2277 39.505 57.3267 39.703C57.5247 39.901 57.8218 40.0001 58.2178 40.0001C58.6138 40.0001 58.9109 39.901 59.1089 39.802L59.2079 41.4852C58.8119 41.6832 58.3168 41.6832 57.8218 41.6832C56.8317 41.6832 56.0396 41.3862 55.6435 40.8911C55.2475 40.3961 55.0495 39.604 55.0495 38.7129V34.7525Z" fill="#003366"/>
<path d="M61.0891 11.5842C60.6931 11.1881 60.198 10.9901 59.703 10.9901C58.6139 10.9901 57.8218 11.8812 57.8218 12.8713C57.8218 13.3663 58.0198 13.7624 58.3168 14.1584C63.4653 19.901 66.3366 27.3267 66.3366 34.9505C66.3366 52.1782 52.3762 66.1386 35.1485 66.1386C17.9208 66.1386 3.86139 52.1782 3.86139 35.0495C3.86139 17.8218 17.8218 3.86139 35.0495 3.86139C37.8218 3.86139 40.495 4.25743 43.1683 4.9505C43.2673 4.9505 43.3663 4.9505 43.5644 4.9505C44.6535 4.9505 45.4455 4.05941 45.4455 3.06931C45.4455 2.17822 44.8515 1.48515 44.0594 1.18812C41.0891 0.39604 38.0198 0 34.9505 0C15.7426 0 0 15.7426 0 35.0495C0 54.3564 15.7426 70.099 35.0495 70.099C54.3564 70.099 70.099 54.3564 70.099 35.0495C70 26.3366 66.8317 18.0198 61.0891 11.5842Z" fill="#FF8900"/>
<path d="M47.6238 9.90102H49.9011V12.1782C49.9011 13.2674 50.7921 14.0594 51.7822 14.0594C52.8713 14.0594 53.6634 13.1683 53.6634 12.1782V9.90102H55.9407C57.0298 9.90102 57.8218 9.00993 57.8218 8.01983C57.8218 6.93072 56.9308 6.13864 55.9407 6.13864H53.6634V3.86141C53.6634 2.7723 52.7723 1.98022 51.7822 1.98022C50.6931 1.98022 49.9011 2.87131 49.9011 3.86141V6.13864H47.6238C46.5347 6.13864 45.7426 7.02973 45.7426 8.01983C45.6436 9.00993 46.5347 9.90102 47.6238 9.90102Z" fill="#FF8900"/>
</g>
<defs>
<clipPath id="clip0_2_8">
<rect width="70" height="70" fill="white"/>
</clipPath>
</defs>
</svg>
